<!-- Generated by IcoMoon.io -->
<svg version="1.1" xmlns="http://www.w3.org/2000/svg" width="1024" height="1024" viewBox="0 0 1024 1024">
<title></title>
<g id="icomoon-ignore">
</g>
<path d="M907.378 369.778h-776.533c-22.756 0-39.822 19.911-39.822 42.667l17.067 406.756c0 19.911 17.067 36.978 39.822 36.978h742.4c19.911 0 39.822-17.067 39.822-36.978l17.067-406.756c0-22.756-19.911-42.667-39.822-42.667zM676.978 526.222c8.533-25.6 31.289-36.978 39.822-39.822 0 0 2.844 0 2.844 0s0 0 2.844 0c0 0 0 0 2.844 0h5.689c0 0 2.844 0 2.844 0 2.844 0 11.378 2.844 25.6 5.689l8.533 2.844c19.911 5.689 28.444 17.067 28.444 19.911 11.378 11.378 14.222 31.289 8.533 56.889h-8.533l5.689-2.844c2.844 2.844 2.844 11.378 0 22.756 0 2.844-2.844 5.689-5.689 11.378-5.689 28.444-31.289 62.578-59.733 62.578-25.6 0-51.2-28.444-56.889-62.578v0c-2.844-2.844-2.844-5.689-5.689-11.378 0-5.689-2.844-14.222 0-19.911 0 0 0 0 0 0s0-2.844 0-2.844c0-19.911 0-34.133 2.844-42.667zM864.711 793.6c-39.822 17.067-96.711 22.756-116.622 25.6h-8.533c-2.844 0-2.844 0-5.689 0s-2.844 0-5.689 0h-2.844c-51.2-2.844-93.867-14.222-122.311-25.6 0 0 0 0-2.844 0-2.844-2.844-5.689-8.533-5.689-14.222 0 0 2.844-28.444 22.756-59.733 0 0 0 0 0 0 2.844-2.844 8.533-8.533 19.911-11.378h2.844c11.378-2.844 31.289-11.378 42.667-19.911 0 0 0 0 0 0 2.844-2.844 2.844-5.689 5.689-5.689v0 0c2.844-2.844 5.689-2.844 5.689 0v0c11.378 11.378 22.756 14.222 31.289 14.222 11.378 0 22.756-5.689 34.133-14.222 2.844 0 2.844-2.844 5.689 0h2.844c0 0 0 0 0 0 2.844 2.844 5.689 2.844 5.689 5.689h2.844c0 0 0 0 0 0 2.844 0 2.844 2.844 5.689 2.844s2.844 2.844 5.689 2.844h2.844c5.689 0 17.067 5.689 25.6 8.533h2.844c14.222 5.689 19.911 14.222 19.911 14.222 22.756 34.133 22.756 59.733 22.756 62.578 8.533 5.689 5.689 11.378 2.844 14.222zM907.378 338.489h-776.533v-139.378c0-17.067 14.222-31.289 28.444-31.289h236.089c5.689 0 11.378 2.844 11.378 5.689l51.2 45.511h418.133c17.067 0 28.444 14.222 28.444 31.289l2.844 88.178z"></path>
</svg>
